# xmcd
# 
# Track frame offsets:
#     150
#     10395
#     25861
#     38838
#     55179
#     70028
#     85029
#     99819
#     121965
#     133938
#     147941
#     167918
#     186592
# 
# Disc length: 2931
# 
# Revision: 0
# Processed by: cddbd v1.5.2PL0 Copyright (c) Steve Scherf et al.
# Submitted via: fre:ac v1.0.31
# 
DISCID=ae0b710d
DTITLE=Blues'n'Trouble - Blues Graffiti
DYEAR=2000
DGENRE=Blues
TTITLE0=Big City
TTITLE1=Poolmans Prison
TTITLE2=Red Wine Boogaloo
TTITLE3=Dames Don't Care
TTITLE4=Drink Till I Die
TTITLE5=Dr. Boogie
TTITLE6=Little Black Engine
TTITLE7=Louisiana Blues
TTITLE8=Dangerous Curves
TTITLE9=Another Little Drink
TTITLE10=Can Ladies Kill
TTITLE11=Grim Reaper Blues
TTITLE12=Hip Shakin Mama
EXTD=
EXTT0=
EXTT1=
EXTT2=
EXTT3=
EXTT4=
EXTT5=
EXTT6=
EXTT7=
EXTT8=
EXTT9=
EXTT10=
EXTT11=
EXTT12=
PLAYORDER=
